<?xml version="1.0" encoding="utf-8"?>
<!-- Generator: Adobe Illustrator 19.0.0, SVG Export Plug-In . SVG Version: 6.00 Build 0)  -->
<svg version="1.1" xmlns="http://www.w3.org/2000/svg" xmlns:xlink="http://www.w3.org/1999/xlink" x="0px" y="0px"
	 viewBox="0 0 1332 1172" style="enable-background:new 0 0 1332 1172;" xml:space="preserve">
<style type="text/css">
	.st0{fill:#18355B;stroke:#000000;stroke-miterlimit:10;}
	.st1{display:none;}
	.st2{display:inline;}
	.st3{fill:#F6A82D;}
	.st4{fill:#D54D52;}
	.st5{fill:#EC555B;}
	.st6{fill:#F9AE36;}
	.st7{fill:#FFFFFF;}
	.st8{fill:#69C9C1;}
	.st9{fill:#3E97D1;}
	.st10{fill:#FFFFFF;stroke:#FFFFFF;stroke-width:0.75;stroke-miterlimit:10;}
</style>
<g id="Layer_2">
	<rect x="-22.3" y="-20.2" class="st0" width="2703.3" height="1218.1"/>
</g>
<g id="laptop" class="st1">
	<g class="st2">
		<path class="st3" d="M966.1,719.6h-8.7V349.4c0-21.4-17.4-38.8-38.8-38.8h-612c-21.4,0-38.8,17.4-38.8,38.8v370.2H259
			c-6.4,0-11.6,5.2-11.6,11.6v18.3c0,27.5,22.4,49.9,49.9,49.9h630.5c27.5,0,49.9-22.4,49.9-49.9v-18.3
			C977.7,724.8,972.5,719.6,966.1,719.6z M291,349.4c0-8.6,7-15.5,15.5-15.5h302.5c-0.3,0.1-0.6,0.2-0.9,0.3c-0.8,0.3-1.4,0.6-2,1.1
			c-0.7,0.4-1.2,0.9-1.8,1.4c-2.2,2.2-3.4,5.2-3.4,8.3c0,3.1,1.2,6,3.4,8.2c1.2,1.2,2.7,2.1,4.3,2.7H325c-6.4,0-11.6,5.2-11.6,11.6
			v328c0,6.4,5.2,11.6,11.6,11.6h575.1c6.4,0,11.6-5.2,11.6-11.6v-328c0-6.4-5.2-11.6-11.6-11.6H616.5c1.6-0.6,3.1-1.5,4.3-2.7
			c1.1-1.2,1.9-2.4,2.6-3.8c0.5-1.4,0.9-3,0.9-4.4c0-3.1-1.2-6.1-3.4-8.3c-1.3-1.3-2.9-2.2-4.7-2.8h302.5c8.6,0,15.5,7,15.5,15.5
			v370.2H698.6c-5.7,0-10.5,4.1-11.5,9.6H538c-1-5.4-5.7-9.6-11.5-9.6H291V349.4z M888.5,379.1v304.7H336.7V379.1H888.5z
			 M954.5,749.5c0,14.7-12,26.7-26.7,26.7H297.3c-14.7,0-26.7-12-26.7-26.7v-6.6h247.7c3.8,5.8,10.3,9.6,17.7,9.6h153
			c7.4,0,13.9-3.8,17.7-9.6h247.7V749.5z"/>
		<path class="st4" d="M406.8,654.5h411.5c17.1,0,31-13.9,31-31V436.4c0-17.1-13.9-31-31-31H406.8c-17.1,0-31,13.9-31,31v187.1
			C375.8,640.6,389.7,654.5,406.8,654.5z M399.1,623.5v-136h58.1v143.7h-50.3C402.6,631.2,399.1,627.7,399.1,623.5z M818.3,631.2
			H480.5V487.5H826v136C826,627.7,822.6,631.2,818.3,631.2z M406.8,428.6h411.5c4.3,0,7.7,3.5,7.7,7.7v27.8H399.1v-27.8
			C399.1,432.1,402.6,428.6,406.8,428.6z"/>
		<path class="st4" d="M421.2,458c6.4,0,11.6-5.2,11.6-11.6s-5.2-11.6-11.6-11.6h-0.1c-6.4,0-11.6,5.2-11.6,11.6
			S414.8,458,421.2,458z"/>
		<path class="st4" d="M446.3,458c6.4,0,11.6-5.2,11.6-11.6s-5.2-11.6-11.6-11.6h-0.1c-6.4,0-11.6,5.2-11.6,11.6
			S439.9,458,446.3,458z"/>
		<path class="st4" d="M471.4,458c6.4,0,11.6-5.2,11.6-11.6s-5.2-11.6-11.6-11.6h-0.1c-6.4,0-11.6,5.2-11.6,11.6S465,458,471.4,458z
			"/>
		<path class="st4" d="M797.4,512.2H507.3c-6.4,0-11.6,5.2-11.6,11.6c0,6.4,5.2,11.6,11.6,11.6h290.1c6.4,0,11.6-5.2,11.6-11.6
			C809.1,517.4,803.9,512.2,797.4,512.2z"/>
		<path class="st4" d="M797.4,546.4H507.3c-6.4,0-11.6,5.2-11.6,11.6c0,6.4,5.2,11.6,11.6,11.6h290.1c6.4,0,11.6-5.2,11.6-11.6
			C809.1,551.6,803.9,546.4,797.4,546.4z"/>
		<path class="st4" d="M797.4,580.6H507.3c-6.4,0-11.6,5.2-11.6,11.6s5.2,11.6,11.6,11.6h290.1c6.4,0,11.6-5.2,11.6-11.6
			S803.9,580.6,797.4,580.6z"/>
		<path class="st4" d="M424.2,535.5h8.4c6.4,0,11.6-5.2,11.6-11.6c0-6.4-5.2-11.6-11.6-11.6h-8.4c-6.4,0-11.6,5.2-11.6,11.6
			C412.6,530.3,417.8,535.5,424.2,535.5z"/>
		<path class="st4" d="M432.7,546.4h-8.4c-6.4,0-11.6,5.2-11.6,11.6c0,6.4,5.2,11.6,11.6,11.6h8.4c6.4,0,11.6-5.2,11.6-11.6
			C444.3,551.6,439.1,546.4,432.7,546.4z"/>
		<path class="st4" d="M432.7,580.6h-8.4c-6.4,0-11.6,5.2-11.6,11.6s5.2,11.6,11.6,11.6h8.4c6.4,0,11.6-5.2,11.6-11.6
			S439.1,580.6,432.7,580.6z"/>
	</g>
</g>
<g id="all-laptop">
	<g id="laptop1">
		<g>
			<path class="st5" d="M894.5,642.6V301.8c0-2.7-1.8-4.5-4.5-4.5H351.9c-2.7,0-4.5,1.8-4.5,4.5v340.8c0,2.7,1.8,4.5,4.5,4.5H890
				C892.7,647.1,894.5,645.3,894.5,642.6z M885.5,638.1H356.4V306.3h529.1V638.1z"/>
			<path class="st5" d="M1006.6,673.1h-76.2V274.9c0-12.6-9.9-22.4-22.4-22.4h-574c-12.6,0-22.4,9.9-22.4,22.4v398.2h-76.2
				c-7.2,0-13.5,6.3-13.5,13.5v9.9c0,10.8,66.4,22.4,67.3,22.4h663.7c0.9,0,67.3-11.7,67.3-22.4v-9.9
				C1020,679.4,1013.8,673.1,1006.6,673.1z M320.5,274.9c0-7.2,6.3-13.5,13.5-13.5h574c7.2,0,13.5,6.3,13.5,13.5v398.2H701.7
				c-0.9,0-2.7,0.9-3.6,1.8c-0.9,0.9-0.9,1.8-0.9,3.6c0,0,0,0,0,0.9c0,2.7-1.8,4.5-4.5,4.5H549.2c-2.7,0-4.5-1.8-4.5-4.5v-0.9
				c0-0.9,0-2.7-0.9-3.6c-0.9-0.9-1.8-1.8-3.6-1.8H320.5V274.9z M1011.1,694.6c-8.1,4.5-52.9,15.2-58.3,15.2H289.1
				c-5.4,0-50.2-10.8-58.3-15.2v-8.1c0-2.7,1.8-4.5,4.5-4.5h78.9c0.9,0,0.9,0.9,1.8,0.9c0.9,0,1.8,0,1.8-0.9h217.9
				c1.8,5.4,7.2,9.9,12.6,9.9h143.5c6.3,0,10.8-3.6,12.6-9.9h218.8c0.9,0,0.9,0.9,1.8,0.9c0.9,0,1.8,0,1.8-0.9h79.8
				c2.7,0,4.5,1.8,4.5,4.5V694.6z"/>
		</g>
	</g>
	<g id="Layer_18">
	</g>
	<g id="Layer_19">
	</g>
	<g id="Layer_4">
		<rect x="356.4" y="306.3" class="st6" width="529.1" height="331.8"/>
	</g>
	<g id="Layer_5">
		<g>
			<path class="st7" d="M760.8,342.3c-21.3,0-38.8,17.5-38.8,38.8c0,15.4,9.2,28.8,22.1,35.1l-51.7,65.9c-0.4,0.4-0.4,0.8-0.4,0.8
				c-4.6-2.1-9.6-2.9-15-2.9c-6.3,0-12.1,1.7-17.1,4.2l-65.9-42.6c6.3-7.1,10.4-16.3,10.4-26.3c0-21.3-17.5-38.8-38.8-38.8
				s-38.8,17.5-38.8,38.8c0,14.2,7.5,26.3,18.8,33l-51.7,72.2c-5.8-3.8-12.9-5.8-20.4-5.8c-21.3,0-38.8,17.5-38.8,38.8
				s17.5,38.8,38.8,38.8s38.8-17.5,38.8-38.8c0-10.9-4.6-20.9-11.7-28l53-73.4c3.8,1.3,7.9,2.1,12.1,2.1c7.9,0,15.4-2.5,21.7-6.7
				l64.7,42.1c-8.3,7.1-13.8,17.9-13.8,29.6c0,21.3,17.5,38.8,38.8,38.8s38.8-17.5,38.8-38.8c0-12.9-6.7-24.6-16.3-31.7l53.8-68.4
				c2.5,0.4,5.4,0.8,8.3,0.8c21.3,0,38.8-17.5,38.8-38.8C799.6,359.4,782.5,342.3,760.8,342.3z M503.8,553.4
				c0,16.7-13.8,30.5-30.5,30.5s-30.5-13.8-30.5-30.5c0-16.7,13.8-30.5,30.5-30.5c6.7,0,12.5,2.1,17.5,5.4c0.4,0.4,0.8,0.8,1.3,1.3
				s0.8,0.4,1.3,0.4C500,535.9,503.8,544.2,503.8,553.4z M535.1,415.3c0-16.7,13.8-30.5,30.5-30.5s30.5,13.8,30.5,30.5
				c0,16.7-13.8,30.5-30.5,30.5S535.1,432,535.1,415.3z M707,518.8c0,16.7-13.8,30.5-30.5,30.5s-30.5-13.8-30.5-30.5
				s13.8-30.5,30.5-30.5C693.2,488.3,707,502.1,707,518.8z M760.8,411.1c-16.7,0-30.5-13.8-30.5-30.5c0-16.7,13.8-30.5,30.5-30.5
				s30.5,13.8,30.5,30.5C791.3,397.3,777.9,411.1,760.8,411.1z"/>
		</g>
	</g>
	<g id="analytics">
	</g>
</g>
<g id="dollars">
	<g>
		<g>
			<path class="st5" d="M1100.4,823.8h24.8V799h-8.3v11c-15.6-11.9-34.7-18.5-54.4-18.5c-49.4,0-89.5,40.2-89.5,89.5
				c0,2.6,0.2,5.1,0.4,7.7c-4.6,2.4-7.7,7.2-7.7,12.8c0,8,6.5,14.5,14.5,14.5c8,0,14.5-6.5,14.5-14.5c0-7.5-5.8-13.7-13.1-14.4
				c-0.2-2-0.3-4-0.3-6.1c0-44.8,36.4-81.2,81.2-81.2c17.3,0,34,5.5,47.8,15.6h-9.8L1100.4,823.8L1100.4,823.8z M986.2,901.6
				c0,3.4-2.8,6.1-6.1,6.1s-6.1-2.8-6.1-6.1s2.8-6.1,6.1-6.1S986.2,898.2,986.2,901.6z"/>
			<path class="st8" d="M1138.1,834.2c-8,0-14.5,6.5-14.5,14.5c0,8,6.5,14.5,14.5,14.5c1.2,0,2.3-0.2,3.4-0.4
				c1.4,6,2.1,12.2,2.1,18.4c0,44.8-36.4,81.2-81.2,81.2c-20,0-39.1-7.3-54-20.6h11.2v-8.3h-24.8v24.8h8.3v-10
				c16.4,14.5,37.3,22.4,59.3,22.4c49.4,0,89.5-40.2,89.5-89.5c0-7.8-1-15.5-3-22.9c2.3-2.6,3.6-5.9,3.6-9.6
				C1152.5,840.7,1146,834.2,1138.1,834.2z M1138.1,854.8c-3.4,0-6.1-2.8-6.1-6.1s2.8-6.1,6.1-6.1s6.1,2.8,6.1,6.1
				S1141.4,854.8,1138.1,854.8z"/>
			<path class="st7" d="M1054,936.5h9.8c2.2,0,4.1-1.8,4.1-4.1v-9.5l2-0.5c16.7-4.2,22.6-15.7,22.6-24.2c0-15.8-13.6-22.4-27-26.8
				c-12.5-4.1-16.6-6.7-16.6-10.4c0-3.3,3.8-6.7,12.5-6.7c9.5,0,15.4,2.7,18,3.9c0.5,0.2,1.1,0.4,1.7,0.4c1.6,0,3-0.9,3.7-2.3
				l3.9-8.3c0.5-1,0.5-2.1,0.1-3.1c-0.4-1-1.1-1.9-2.1-2.3c-4.7-2.2-9.8-3.6-15.5-4.3l-2.4-0.3v-8.2c0-2.2-1.8-4.1-4.1-4.1h-9.7
				c-2.2,0-4.1,1.8-4.1,4.1v9.1l-2,0.5c-13.5,3.4-21.5,12.1-21.5,23.1c0,14.6,14.4,21.1,28.6,25.5c13.1,4.3,14.8,7.9,14.8,11
				c0,4.7-6.1,8.2-14.5,8.2c-7.1,0-14.8-1.8-20.6-4.9c-0.6-0.3-1.3-0.5-1.9-0.5c-0.4,0-0.9,0.1-1.3,0.2c-1.1,0.4-1.9,1.2-2.4,2.2
				l-3.8,8.4c-0.8,1.9-0.1,4.2,1.7,5.2c4.8,2.8,11.9,4.8,19.4,5.6l2.4,0.2v8.7C1049.9,934.7,1051.8,936.5,1054,936.5z"/>
		</g>
	</g>
</g>
<g id="Layer_11">
	<g>
		<polyline class="st9" points="103.1,140.7 103.1,229.5 105.5,232 101.3,267.9 59.6,311.3 21.3,270.9 12.1,238.4 16.5,201.1 
			28.3,176.3 54.3,150.9 88.8,140.7 103.1,140.7 100.4,281.3 84.4,316 66.3,314.8 63,307.8 		"/>
	</g>
</g>
<g id="Layer_12">
	<path class="st9" d="M105.5,232"/>
	<g>
		<polygon class="st9" points="196.3,232 190,270.4 163.1,301.8 130.4,318.6 85.2,318.6 71.5,298.9 64.6,257.6 69.1,242.3 
			105.5,232 		"/>
	</g>
</g>
<g id="grouo1">
	<g>
		<polyline class="st5" points="127.2,121.4 141.9,123 157.8,127.6 176.2,137.7 191.5,151.4 199.4,159.2 213.7,182.5 213.7,203.4 
			213.7,207.9 196.3,207.9 160.4,207.9 130.4,207.9 127.2,204.6 127.2,207.9 127.2,128.1 124.8,116.5 141.9,123 161,126.9 
			172.8,133.5 187.7,140.7 191.5,151.4 196.3,157.4 172.8,212.7 124.6,212.7 124.6,183.7 		"/>
	</g>
</g>
<g id="Layer_10">
	<g id="stocks_data_x27_">
		<g transform="translate(0,-952.36218)">
			<path class="st9" d="M124.3,1068.8c-1.2,0.2-2,1.2-2,2.4v91.4c0,1.2,0.9,2.3,2.2,2.4c0.1,0,0.2,0,0.2,0h91.4
				c1.3,0,2.4-1.1,2.4-2.4c0-51.8-42-93.8-93.8-93.8C124.6,1068.8,124.5,1068.8,124.3,1068.8z M127.2,1073.7
				c47.3,1.3,85.2,39.3,86.5,86.5h-86.5V1073.7z M105.5,1088.1c-51.8,0-93.8,42-93.8,93.8s42,93.8,93.8,93.8s93.8-42,93.8-93.8
				c0-1.3-1.1-2.4-2.4-2.4h-89v-89C108,1089.2,106.9,1088.1,105.5,1088.1z M103.1,1093v88.9c0,1.3,1.1,2.4,2.4,2.4h88.9
				c-1.3,48.1-40.5,86.6-88.9,86.6c-49.2,0-89-39.8-89-89C16.5,1133.5,55.1,1094.3,103.1,1093z"/>
		</g>
		<g id="Layer_9">
		</g>
	</g>
</g>
<g id="access">
	<g>
		<g>
			<path class="st5" d="M200.8,1019.6H63.4c-1.6,0-2.9,1.3-2.9,2.9c0,1.6,1.3,2.9,2.9,2.9h137.5c1.6,0,2.9-1.3,2.9-2.9
				C203.7,1020.9,202.4,1019.6,200.8,1019.6z"/>
		</g>
		<g>
			<path class="st6" d="M213.5,917.4c-0.1-0.9-0.3-1.7-0.5-2.6c-3.3-11.5-7.7-19-12.1-23.9c-7.8-8.7-15.6-9.4-17.9-9.9
				c-7.2-1.7-16-1-20.7-2.4c-0.6,4.6-13.9,19.7-22.6,29.2l-3.8-14.6c2.8-1.7,3.5-5.4,3.5-8.5h-14.4c0,3.1,0.6,6.7,3.4,8.4l-3.7,14.7
				c-8.8-9.5-22.1-24.6-22.6-29.2c-4.7,1.5-13.5,0.7-20.7,2.4c-2.4,0.6-10.7,1.3-18.7,10.9c-4.1,4.9-8.2,12.1-11.3,22.9
				c-0.2,0.9-0.4,1.7-0.5,2.6c-4.9,2.2-8.3,7-8.3,12.7v0.3l0.1,0.3l12.6,73c0.2,7.5,6.4,13.6,13.9,13.6h126.4
				c7.6,0,13.7-6.1,13.9-13.6l12.6-73l0.1-0.3v-0.3C221.8,924.4,218.4,919.5,213.5,917.4z M205.4,1003.4c0,5.6-4.5,10.1-10.1,10.1
				H68.9c-5.6,0-10.1-4.5-10.1-10.1l-12.6-73.3c0-5.6,4.5-10.1,10.1-10.1h151.6c5.6,0,10.1,4.5,10.1,10.1L205.4,1003.4z"/>
		</g>
		<g>
			<path class="st5" d="M132.1,959.5c-3.3,0-6,2.7-6,6c0,3.3,2.7,6,6,6c3.3,0,6-2.7,6-6C138.1,962.2,135.4,959.5,132.1,959.5z"/>
		</g>
		<g>
			<path class="st10" d="M90.3,846.8c1.1,0.3,2.2,0.5,3.4,0.5H95c3.4,8.3,8.4,16.1,14.5,22c3.8,3.7,8,6.6,12.4,8.4
				c3.1,1.2,6.3,1.9,9.6,1.9s6.5-0.7,9.6-1.9c4.6-1.8,8.9-4.9,12.8-8.8c4.5-4.5,8.3-10,11.4-16c2.5-1.7,4.6-3.6,6.2-5.7
				c0.8-0.1,1.5-0.2,2.2-0.3c5.4-1.3,9.3-5.9,9.3-11.4v-9.2c0-5.5-4-10-9.3-11.4v-15.1c0-21.6-18.7-39.2-41.7-39.2
				s-41.7,17.6-41.7,39.2V815c-5.2,1.4-9.1,5.9-9.1,11.3v9.2C81.2,840.9,85,845.4,90.3,846.8z M132,768.8c11.6,0,21.8,5.7,27.7,14.2
				c-6.1-4.8-14-7.7-23.3-8.3c-13.5-0.9-24.8,2.6-32.6,9.1C109.6,774.8,120,768.8,132,768.8z M99,820.9c1.2-3.9,3.9-9.3,9.7-11.4
				c0.1,0,0.2-0.1,0.3-0.1c0.6-0.2,1.2-0.4,1.8-0.5c1.5-0.3,3.2-0.4,5.2-0.2c0,0,13.4,4.9,25.6,0.6c1.3,0,2.6,0,3.8,0
				c5,0.2,8.5,2.8,12.1,4.5h0c-0.1-1.7-1.4-3.4-1.4-4.5c0,0,0,0,0,0c0.6,0.2,1.1,0.4,1.6,0.7c2.6,2.8,5.1,7.4,7.1,15.1
				c0,0,0,0.1,0,0.1c0,0,0,0,0,0c0,0,0,0,0,0v0v0l0,0c0,0,0,0,0.1,0v16.3c-0.2,0.2-0.5,0.3-0.7,0.4c-0.1,0-0.1,0-0.1,0l-0.4,0
				c0,0-0.1,0-0.1,0c-0.1,0-0.2,0-0.2,0c-0.3-0.1-0.6-0.2-0.9-0.4c0,0,0,0,0,0c-1,3-2.3,6.1-3.8,9c-4.9,2.6-11.1,4.4-17.9,5
				c-1-1.5-2.6-2.5-4.6-2.5h-7.2c-3,0-5.4,2.4-5.4,5.5c0,3,2.4,5.4,5.4,5.4h7.2c2.1,0,3.9-1.2,4.8-2.9c4.6-0.4,8.8-1.2,12.8-2.4
				c-2.3,3.1-4.9,5.9-7.7,8.1c-2.2,1.7-4.5,3.1-6.9,4c0,0-0.1,0-0.1,0l-2.8,0.8c-0.1,0-0.1,0-0.2,0.1c-0.3,0.1-0.5,0.2-0.8,0.2
				c-0.1,0-0.2,0-0.3,0l-1.1,0.1c-0.1,0-0.2,0-0.3,0c-0.8,0.1-1.5,0.2-2.3,0.2c-5.2,0-10-2-14.4-5.4c-7.6-5.8-13.6-15.5-16.7-25.3h0
				c-0.3,0.2-0.5,0.4-0.8,0.5h0c-0.2,0-0.4,0-0.5,0L99,820.9L99,820.9z"/>
		</g>
	</g>
</g>
<g id="cart">
	<g transform="translate(0,-952.36218)">
		<path class="st5" d="M1134.1,1068.3c-9.5,0-17.4,7.9-17.4,17.4c0,4.7,1.9,8.9,5,12.1l-18.8,40.1h-38.4c-9.5,0-17.4,7.9-17.4,17.4
			l0,23.2c0,9,7,16.5,15.8,17.3l25,105.7c0.6,2.6,2.9,4.5,5.6,4.5l162.4,0c2.7,0,5-1.9,5.6-4.5l25-105.7c8.8-0.8,15.8-8.3,15.8-17.3
			l0-23.2c0-9.5-7.9-17.4-17.4-17.4l-38.4,0l-18.8-40.1c3.1-3.1,5-7.4,5-12.1c0-9.5-7.9-17.4-17.4-17.4c-9.5,0-17.4,7.9-17.4,17.4
			s7.9,17.4,17.4,17.4c0.7,0,1.4,0,2.1-0.1l16.2,34.9l-117.8,0l16.2-34.9c0.7,0.1,1.4,0.1,2.1,0.1c9.5,0,17.4-7.9,17.4-17.4
			C1151.5,1076.1,1143.7,1068.3,1134.1,1068.3z M1134.1,1079.9c3.3,0,5.8,2.5,5.8,5.8c0,3.3-2.5,5.8-5.8,5.8c-3.3,0-5.8-2.5-5.8-5.8
			C1128.3,1082.4,1130.8,1079.9,1134.1,1079.9z M1215.3,1079.9c3.3,0,5.8,2.5,5.8,5.8c0,3.3-2.5,5.8-5.8,5.8c-3.3,0-5.8-2.5-5.8-5.8
			C1209.5,1082.4,1212,1079.9,1215.3,1079.9z M1064.5,1149.5l220.4,0c3.3,0,5.8,2.5,5.8,5.8l0,23.2c0,3.3-2.5,5.8-5.8,5.8l-220.4,0
			c-3.3,0-5.8-2.5-5.8-5.8l0-23.2C1058.7,1151.9,1061.2,1149.5,1064.5,1149.5z M1074.8,1195.8h37.1l18.1,98.6h-32L1074.8,1195.8z
			 M1123.7,1195.8l45.2,0l0,98.6h-27.1L1123.7,1195.8z M1180.5,1195.8l45.2,0l-18.1,98.6l-27.1,0L1180.5,1195.8z M1237.5,1195.8
			h37.1l-23.3,98.6h-32L1237.5,1195.8z"/>
	</g>
</g>
<g id="clouds">
	<g transform="translate(0,-952.36218)">
		<path class="st8" d="M1242.9,1225.4c-12.6,0-25.2,4.8-34.8,14.3c-7.4,7.4-11.9,16.8-13.5,26.4c-19,3.1-33.6,19.5-33.6,39.4
			c0,22.1,18,40.1,40.1,40.1l89.2,0c19.1,0,34.6-15.5,34.6-34.6c0-18.6-14.7-33.6-33.1-34.4c0.5-13.3-4-26.7-14.1-36.8
			C1268,1230.2,1255.5,1225.4,1242.9,1225.4z M1242.9,1232.7c10.7,0,21.4,4,29.6,12.2c9.5,9.5,13.4,22.3,12,34.7
			c-0.3,2,1.2,3.8,3.2,4.1c0.2,0,0.3,0,0.5,0h2.2c15.2,0,27.3,12.1,27.3,27.3s-12.1,27.3-27.3,27.3l-89.2,0
			c-18.1,0-32.8-14.6-32.8-32.8c0-17.1,13.1-31.2,29.8-32.7c1.7-0.1,3.1-1.5,3.3-3.2c1.1-9.1,5-17.8,12-24.8
			C1221.5,1236.7,1232.2,1232.7,1242.9,1232.7z"/>
	</g>
</g>
<g id="Layer_20">
	<g>
		<polyline class="st8" points="1275.9,296.5 1282.5,308.5 1284.7,325.2 1284.5,327.2 1290.3,331.3 1298.2,331.3 1313,338.2 
			1319.7,362.8 1315.5,382.3 1290.7,390.6 1261.1,386 1208.2,390.6 1180.5,386 1168.2,361.9 1164.8,348.5 1168.9,331 1190.7,318.5 
			1200.6,309.1 1209.8,296.5 1219.4,283.1 1231.8,274.3 1247,274.3 1272.3,289.4 1285.7,308.6 1287.9,323 1283.9,332.5 
			1277.6,335.5 		"/>
	</g>
</g>
<g id="Layer_21">
</g>
</svg>
