<?xml version="1.0" encoding="utf-8"?>
<!-- Generator: Adobe Illustrator 19.0.0, SVG Export Plug-In . SVG Version: 6.00 Build 0)  -->
<svg version="1.1" xmlns="http://www.w3.org/2000/svg" xmlns:xlink="http://www.w3.org/1999/xlink" x="0px" y="0px"
	 viewBox="-1245 501 171 171" style="enable-background:new -1245 501 171 171;" xml:space="preserve">
<style type="text/css">
	.st0{fill:none;stroke:#37D6A6;stroke-width:2;stroke-miterlimit:10;}
	.st1{fill:none;stroke:#37D6A6;stroke-miterlimit:10;}
	.st2{fill:#37D6A6;}
</style>
<g id="Layer_5">
	<path class="st0" d="M-1094.2,630.4H-1224c-5.8,0-10.5-4.7-10.5-10.5v-89.7c0-5.8,4.7-10.5,10.5-10.5h129.8
		c5.8,0,10.5,4.7,10.5,10.5v89.7C-1083.7,625.7-1088.4,630.4-1094.2,630.4z M-1224,521.1c-5.1,0-9.2,4.1-9.2,9.2v89.7
		c0,5.1,4.1,9.2,9.2,9.2h129.8c5.1,0,9.2-4.1,9.2-9.2v-89.7c0-5.1-4.1-9.2-9.2-9.2H-1224z"/>
	<path class="st0" d="M-1234.3,603.5h150c0-0.4,0-0.9,0-1.3h-150C-1234.2,602.7-1234.2,603.1-1234.3,603.5z"/>
	<path class="st0" d="M-1159.1,625.8c-4.8,0-8.7-3.9-8.7-8.7s3.9-8.7,8.7-8.7s8.7,3.9,8.7,8.7S-1154.3,625.8-1159.1,625.8z
		 M-1159.1,609.7c-4.1,0-7.4,3.3-7.4,7.4c0,4.1,3.3,7.4,7.4,7.4s7.4-3.3,7.4-7.4C-1151.7,613-1155.1,609.7-1159.1,609.7z"/>
	<path class="st0" d="M-1159,650.1c0.2,0,0.3,0,0.5,0.1V630c0-0.1,0-0.2,0-0.2c-0.4,0.1-0.8,0.1-1.2,0.1c0,0-0.1,0-0.1,0
		c0,0,0,0.1,0,0.1v20.2C-1159.5,650.2-1159.3,650.1-1159,650.1z"/>
	<path class="st0" d="M-1134.1,650.3c0,0.4-0.2,0.7-0.5,0.7h-48.9c-0.3,0-0.5-0.3-0.5-0.7l0,0c0-0.4,0.2-0.7,0.5-0.7h48.9
		C-1134.4,649.6-1134.1,649.9-1134.1,650.3L-1134.1,650.3z"/>
</g>
<g id="Layer_3">
	
		<rect x="-1140.9" y="533.7" transform="matrix(-0.8192 -0.5736 0.5736 -0.8192 -2382.0708 366.2283)" class="st1" width="15.3" height="49.8"/>
	<path class="st1" d="M-1111.8,541.1l-12.5-8.7l2.8-4.1c1.6-2.3,4.9-2.9,7.3-1.3l3.9,2.7c2.3,1.6,2.9,4.9,1.3,7.3L-1111.8,541.1z"/>
	<polygon class="st1" points="-1157.6,593.4 -1154.5,576.5 -1142.9,584.6 	"/>
	<polygon class="st1" points="-1157.2,592.7 -1156.1,587 -1152.1,589.7 	"/>
</g>
<g id="Layer_4">
	<rect x="-1225.3" y="594.8" class="st2" width="66.8" height="0.8"/>
</g>
<g id="rulers">
</g>
</svg>
