<?xml version="1.0" encoding="utf-8"?>
<!-- Generator: Adobe Illustrator 19.0.0, SVG Export Plug-In . SVG Version: 6.00 Build 0)  -->
<svg version="1.1" xmlns="http://www.w3.org/2000/svg" xmlns:xlink="http://www.w3.org/1999/xlink" x="0px" y="0px"
	 viewBox="-1245 501 171 171" style="enable-background:new -1245 501 171 171;" xml:space="preserve">
<style type="text/css">
	.st0{fill:none;stroke:#37D6A6;stroke-width:0.75;stroke-miterlimit:10;}
	.st1{fill:#37D6A6;}
	.st2{fill:#37D6A6;stroke:#37D6A6;stroke-width:0.5;stroke-miterlimit:10;}
</style>
<g id="Layer_6">
	<g>
		<path class="st0" d="M-1134.1,548.4h3.4c1.8,0,3.2-1.4,3.2-3.2v-13.9c0-1.8-1.4-3.2-3.2-3.2h-3.4c-0.9-2.7-3.2-4.6-6-4.6h-56
			c-0.5,0-0.9,0.4-0.9,0.9s0.4,0.9,0.9,0.9h56c2.5,0,4.6,2,4.6,4.6v16.2c0,2.5-2,4.6-4.6,4.6h-82.2c-2.5,0-4.6-2-4.6-4.6v-16.2
			c0-2.5,2-4.6,4.6-4.6h12.1c0.5,0,0.9-0.4,0.9-0.9s-0.2-0.9-0.7-0.9h-12.1c-2.8,0-5.2,1.8-6,4.4h-3.4c-1.8,0-3.2,1.4-3.2,3.2v13.9
			c0,1.8,1.4,3.2,3.2,3.2h3.4c0.5,1.4,1.4,2.5,2.5,3.4c-0.2,0.2-0.4,0.5-0.4,0.7v4.4c0,0.2,0.2,0.5,0.2,0.5c-1.1,0.7-2,2-2.3,3.2
			l-3.4,0c-1.8,0-3.2,1.4-3.2,3.2v13.9c0,1.8,1.4,3.2,3.2,3.2h3.4c0.5,1.4,1.4,2.5,2.5,3.4c-0.2,0.2-0.4,0.5-0.4,0.7v4.4
			c0,0.2,0.2,0.5,0.2,0.7c-1.1,0.7-2,2-2.3,3.2h-3.4c-1.8,0-3.2,1.4-3.2,3.2v13.9c0,1.8,1.4,3.2,3.2,3.2h3.4c0.9,2.3,3,4.1,5.5,4.3
			v1.8c0,2.1,1.8,3.9,3.9,3.9h33.3v10.3h-1.8c-1.2,0-2.3,1.1-2.3,2.3v1.6h-12.3c-0.5,0-0.9,0.4-0.9,0.9s0.4,0.9,0.9,0.9h12.3v2.1
			h-28.8c-0.5,0-1.1-0.4-1.1-0.9v0.2c0-0.5,0.4-1.1,1.1-1.1h8.2c0.5,0,0.9-0.4,0.9-0.9s-0.4-0.9-0.9-0.9h-8.2
			c-1.6,0-2.8,1.2-2.8,2.8v0.2c0,1.6,1.2,2.8,2.8,2.8h28.6v1.6c0,1.2,1.1,2.3,2.3,2.3h3.2l0,0l0,0h9.2c1.2,0,2.3-1.1,2.3-2.3v-1.6
			h28.6c1.6,0,2.8-1.2,2.8-2.8v-0.2c0-1.6-1.2-2.8-2.8-2.8l-28.6,0v-1.6c0-1.2-1.1-2.3-2.3-2.3h-1.8v-10.3h6.2
			c0.5,0,0.9-0.4,0.9-0.9s-0.4-0.9-0.9-0.9l-48.4,0c-1.1,0-2-0.9-2-2v-1.8h79.3v1.8c0,1.1-0.9,2-2,2h-15.1c-0.5,0-0.9,0.4-0.9,0.9
			s0.4,0.9,0.9,0.9h15.1c2.1,0,3.9-1.8,3.9-3.9v-1.8c2.7-0.2,4.8-2,5.7-4.3h3.4c1.8,0,3.2-1.4,3.2-3.2v-13.9c0-1.8-1.4-3.2-3.2-3.2
			h-3.4c-0.9-2.5-3-4.1-5.7-4.3v-3.6c2.7-0.2,4.8-2,5.7-4.3h3.4c1.8,0,3.2-1.4,3.2-3.2v-13.9c0-1.8-1.4-3.2-3.2-3.2h-3.4
			c-0.9-2.5-3-4.1-5.7-4.3v-3.6C-1136.9,552.5-1134.8,550.7-1134.1,548.4z M-1130.7,529.9c0.7,0,1.2,0.5,1.2,1.2v13.9
			c0,0.7-0.5,1.2-1.2,1.2h-3v-0.2v-16.2v-0.2h3V529.9z M-1231.7,546.5c-0.7,0-1.2-0.5-1.2-1.2v-13.9c0-0.7,0.5-1.2,1.2-1.2l3,0v0.2
			v16.2v0.2h-3V546.5z M-1231.7,579c-0.7,0-1.2-0.5-1.2-1.2v-13.9c0-0.7,0.5-1.2,1.2-1.2h3v0.2V579v0.2h-3V579z M-1231.7,611.8
			c-0.7,0-1.2-0.5-1.2-1.2v-13.9c0-0.7,0.5-1.2,1.2-1.2h3v0.2v16.2v0.2h-3V611.8z M-1187.8,645.7v-9.2c0-0.2,0.2-0.4,0.4-0.4h0.9
			c0,0.2,0,0.2,0,0.4v9.2c0,0.2,0,0.2,0,0.4h-0.9C-1187.6,646.1-1187.8,645.9-1187.8,645.7z M-1144.1,640c0.5,0,1.1,0.4,1.1,1.1v0.2
			c0,0.5-0.4,0.9-1.1,0.9h-28.6V640H-1144.1z M-1174.7,636.5v9.2c0,0.2-0.2,0.4-0.4,0.4h-9.2c-0.2,0-0.4-0.2-0.4-0.4v-9.2
			c0-0.2,0.2-0.4,0.4-0.4h9.2C-1174.8,635.9-1174.7,636.1-1174.7,636.5z M-1180.9,634v-10.3l2.1,0V634H-1180.9z M-1182.8,634h-0.9
			v-10.3h0.9V634z M-1130.7,595.2c0.7,0,1.2,0.5,1.2,1.2v13.9c0,0.7-0.5,1.2-1.2,1.2h-3v-0.2v-16.2V595h3V595.2z M-1130.7,562.5
			c0.7,0,1.2,0.5,1.2,1.2v13.9c0,0.7-0.5,1.2-1.2,1.2h-3v-0.2v-16v-0.2H-1130.7z M-1224.3,552.3c0.5,0.2,1.1,0.4,1.6,0.4v3.6
			c-0.5,0-1.1,0.2-1.6,0.4V552.3L-1224.3,552.3z M-1224.5,585.1c0.5,0.2,1.1,0.4,1.6,0.4v3.6c-0.5,0-1.1,0.2-1.6,0.4V585.1
			C-1224.3,585.1-1224.3,585.1-1224.5,585.1z M-1135.5,595.4v16.2c0,2.5-2,4.6-4.6,4.6h-82.2c-2.5,0-4.6-2-4.6-4.6v-16.2
			c0-2.5,2-4.6,4.6-4.6h12.1c0.5,0,0.9-0.4,0.9-0.9s-0.4-0.9-0.9-0.9h-10.8v-3.6h79.3v3.6h-54.4c-0.5,0-0.9,0.4-0.9,0.9
			s0.4,0.9,0.9,0.9l56,0C-1137.7,590.8-1135.5,592.9-1135.5,595.4z M-1135.5,562.7v16.2c0,2.5-2,4.6-4.6,4.6h-82.2
			c-2.5,0-4.6-2-4.6-4.6v-16.2c0-2.5,2-4.6,4.6-4.6h12.1c0.5,0,0.9-0.4,0.9-0.9s-0.4-0.9-0.9-0.9h-10.8v-3.4h79.3v3.4h-54.4
			c-0.5,0-0.9,0.4-0.9,0.9s0.4,0.9,0.9,0.9h56C-1137.7,558.2-1135.5,560.2-1135.5,562.7z"/>
		<path class="st0" d="M-1205.6,525.5h5c0.5,0,0.9-0.4,0.9-0.9s-0.4-1.1-0.9-1.1h-5c-0.5,0-0.9,0.4-0.9,0.9
			S-1206.1,525.5-1205.6,525.5z"/>
		<path class="st0" d="M-1142.1,538.1c0-2.5-2.1-4.6-4.6-4.6s-4.6,2.1-4.6,4.6s2.1,4.6,4.6,4.6S-1142.1,540.8-1142.1,538.1z
			 M-1149.4,538.1c0-1.4,1.2-2.7,2.7-2.7s2.7,1.2,2.7,2.7s-1.2,2.7-2.7,2.7S-1149.4,539.7-1149.4,538.1z"/>
		<path class="st0" d="M-1157.2,540.6c1.4,0,2.5-1.1,2.5-2.5s-1.1-2.5-2.5-2.5h-21.2c-1.4,0-2.5,1.1-2.5,2.5s1.1,2.5,2.5,2.5
			H-1157.2z M-1178.9,538.1c0-0.4,0.2-0.5,0.5-0.5h21.2c0.4,0,0.5,0.2,0.5,0.5s-0.2,0.5-0.5,0.5h-21.2
			C-1178.6,538.7-1178.9,538.5-1178.9,538.1z"/>
		<rect x="-1217.9" y="532.1" class="st1" width="3.2" height="3.2"/>
		<rect x="-1213.6" y="536.5" class="st1" width="3.2" height="3.2"/>
		<rect x="-1209.2" y="532.1" class="st1" width="3.2" height="3.2"/>
		<rect x="-1217.9" y="541" class="st1" width="3.2" height="3.2"/>
		<rect x="-1209.2" y="541" class="st1" width="3.2" height="3.2"/>
		<rect x="-1204.7" y="536.5" class="st1" width="3.2" height="3.2"/>
		<rect x="-1201.5" y="532.1" class="st1" width="3.2" height="3.2"/>
		<rect x="-1197.1" y="536.5" class="st1" width="3.2" height="3.2"/>
		<rect x="-1192.6" y="532.1" class="st1" width="3.2" height="3.2"/>
		<rect x="-1201.5" y="541" class="st1" width="3.2" height="3.2"/>
		<rect x="-1192.6" y="541" class="st1" width="3.2" height="3.2"/>
		<rect x="-1188.2" y="536.5" class="st1" width="3.2" height="3.2"/>
		<path class="st0" d="M-1230.3,532.1h-1.2c-0.5,0-0.9,0.4-0.9,0.9s0.4,0.9,0.9,0.9h1.2c0.5,0,0.9-0.4,0.9-0.9
			S-1229.8,532.1-1230.3,532.1z"/>
		<path class="st0" d="M-1230.3,542.4h-1.2c-0.5,0-0.9,0.4-0.9,0.9c0,0.5,0.4,0.9,0.9,0.9h1.2c0.5,0,0.9-0.4,0.9-0.9
			C-1229.4,542.7-1229.8,542.4-1230.3,542.4z"/>
		<path class="st0" d="M-1132.1,534h1.2c0.5,0,0.9-0.4,0.9-0.9s-0.4-0.9-0.9-0.9h-1.2c-0.5,0-0.9,0.4-0.9,0.9
			C-1133,533.5-1132.7,534-1132.1,534z"/>
		<path class="st0" d="M-1132.1,544.3h1.2c0.5,0,0.9-0.4,0.9-0.9s-0.4-0.9-0.9-0.9h-1.2c-0.5,0-0.9,0.4-0.9,0.9
			C-1133,543.8-1132.7,544.3-1132.1,544.3z"/>
		<path class="st0" d="M-1199.6,557.2c0-0.5-0.4-0.9-0.9-0.9h-5c-0.5,0-0.9,0.4-0.9,0.9s0.4,0.9,0.9,0.9h5
			C-1200.1,558.2-1199.6,557.7-1199.6,557.2z"/>
		<path class="st0" d="M-1146.7,566.2c-2.5,0-4.6,2.1-4.6,4.6s2.1,4.6,4.6,4.6s4.6-2.1,4.6-4.6S-1144.2,566.2-1146.7,566.2z
			 M-1146.7,573.5c-1.4,0-2.7-1.2-2.7-2.7s1.2-2.7,2.7-2.7s2.7,1.2,2.7,2.7S-1145.3,573.5-1146.7,573.5z"/>
		<path class="st0" d="M-1157.2,568.4h-21.2c-1.4,0-2.5,1.1-2.5,2.5s1.1,2.5,2.5,2.5h21.2c1.4,0,2.5-1.1,2.5-2.5
			S-1155.8,568.4-1157.2,568.4z M-1157.2,571.4h-21.2c-0.4,0-0.5-0.2-0.5-0.5s0.2-0.5,0.5-0.5h21.2c0.4,0,0.5,0.2,0.5,0.5
			C-1156.5,571.2-1156.9,571.4-1157.2,571.4z"/>
		<rect x="-1217.9" y="564.8" class="st1" width="3.2" height="3.2"/>
		<rect x="-1213.6" y="569.2" class="st1" width="3.2" height="3.2"/>
		<rect x="-1209.2" y="564.8" class="st1" width="3.2" height="3.2"/>
		<rect x="-1217.9" y="573.7" class="st1" width="3.2" height="3.2"/>
		<rect x="-1209.2" y="573.7" class="st1" width="3.2" height="3.2"/>
		<rect x="-1204.7" y="569.2" class="st1" width="3.2" height="3.2"/>
		<rect x="-1201.5" y="564.8" class="st1" width="3.2" height="3.2"/>
		<rect x="-1197.1" y="569.2" class="st1" width="3.2" height="3.2"/>
		<rect x="-1192.6" y="564.8" class="st1" width="3.2" height="3.2"/>
		<rect x="-1201.5" y="573.7" class="st1" width="3.2" height="3.2"/>
		<rect x="-1192.6" y="573.7" class="st1" width="3.2" height="3.2"/>
		<rect x="-1188.2" y="569.2" class="st1" width="3.2" height="3.2"/>
		<path class="st0" d="M-1230.3,564.6h-1.2c-0.5,0-0.9,0.4-0.9,0.9s0.4,0.9,0.9,0.9h1.2c0.5,0,0.9-0.4,0.9-0.9
			S-1229.8,564.6-1230.3,564.6z"/>
		<path class="st0" d="M-1230.3,575.1h-1.2c-0.5,0-0.9,0.4-0.9,0.9s0.4,0.9,0.9,0.9h1.2c0.5,0,0.9-0.4,0.9-0.9
			S-1229.8,575.1-1230.3,575.1z"/>
		<path class="st0" d="M-1132.1,566.6h1.2c0.5,0,0.9-0.4,0.9-0.9c0-0.5-0.4-0.9-0.9-0.9h-1.2c-0.5,0-0.9,0.4-0.9,0.9
			S-1132.7,566.6-1132.1,566.6z"/>
		<path class="st0" d="M-1132.1,577.1h1.2c0.5,0,0.9-0.4,0.9-0.9s-0.4-1.1-0.9-1.1h-1.2c-0.5,0-0.9,0.4-0.9,0.9
			S-1132.7,577.1-1132.1,577.1z"/>
		<path class="st0" d="M-1199.6,589.9c0-0.5-0.4-0.9-0.9-0.9h-5c-0.5,0-0.9,0.4-0.9,0.9s0.4,0.9,0.9,0.9h5
			C-1200.1,590.8-1199.6,590.4-1199.6,589.9z"/>
		<path class="st0" d="M-1146.7,598.9c-2.5,0-4.6,2.1-4.6,4.6s2.1,4.6,4.6,4.6s4.6-2.1,4.6-4.6S-1144.2,598.9-1146.7,598.9z
			 M-1146.7,606.2c-1.4,0-2.7-1.2-2.7-2.7s1.2-2.7,2.7-2.7s2.7,1.2,2.7,2.7S-1145.3,606.2-1146.7,606.2z"/>
		<path class="st0" d="M-1157.2,601.1h-21.2c-1.4,0-2.5,1.1-2.5,2.5s1.1,2.5,2.5,2.5h21.2c1.4,0,2.5-1.1,2.5-2.5
			S-1155.8,601.1-1157.2,601.1z M-1157.2,604.1h-21.2c-0.4,0-0.5-0.2-0.5-0.5s0.2-0.5,0.5-0.5h21.2c0.4,0,0.5,0.2,0.5,0.5
			S-1156.9,604.1-1157.2,604.1z"/>
		<rect x="-1217.9" y="597.5" class="st1" width="3.2" height="3.2"/>
		<rect x="-1213.6" y="602" class="st1" width="3.2" height="3.2"/>
		<rect x="-1209.2" y="597.5" class="st1" width="3.2" height="3.2"/>
		<rect x="-1217.9" y="606.4" class="st1" width="3.2" height="3.2"/>
		<rect x="-1209.2" y="606.4" class="st1" width="3.2" height="3.2"/>
		<rect x="-1204.7" y="602" class="st1" width="3.2" height="3.2"/>
		<rect x="-1201.5" y="597.5" class="st1" width="3.2" height="3.2"/>
		<rect x="-1197.1" y="602" class="st1" width="3.2" height="3.2"/>
		<rect x="-1192.6" y="597.5" class="st1" width="3.2" height="3.2"/>
		<rect x="-1201.5" y="606.4" class="st1" width="3.2" height="3.2"/>
		<rect x="-1192.6" y="606.4" class="st1" width="3.2" height="3.2"/>
		<rect x="-1188.2" y="602" class="st1" width="3.2" height="3.2"/>
		<path class="st0" d="M-1230.3,597.3h-1.2c-0.5,0-0.9,0.4-0.9,0.9s0.4,0.9,0.9,0.9h1.2c0.5,0,0.9-0.4,0.9-0.9
			S-1229.8,597.3-1230.3,597.3z"/>
		<path class="st0" d="M-1230.3,607.7h-1.2c-0.5,0-0.9,0.4-0.9,0.9s0.4,0.9,0.9,0.9h1.2c0.5,0,0.9-0.4,0.9-0.9
			S-1229.8,607.7-1230.3,607.7z"/>
		<path class="st0" d="M-1132.1,599.3h1.2c0.5,0,0.9-0.4,0.9-0.9s-0.4-0.9-0.9-0.9h-1.2c-0.5,0-0.9,0.4-0.9,0.9
			C-1133,598.8-1132.7,599.3-1132.1,599.3z"/>
		<path class="st0" d="M-1132.1,609.6h1.2c0.5,0,0.9-0.4,0.9-0.9s-0.4-0.9-0.9-0.9h-1.2c-0.5,0-0.9,0.4-0.9,0.9
			S-1132.7,609.6-1132.1,609.6z"/>
		<path class="st0" d="M-1166.1,621.9c-0.5,0-0.9,0.4-0.9,0.9c0,0.5,0.4,0.9,0.9,0.9h3.4c0.5,0,0.9-0.4,0.9-0.9
			c0-0.5-0.4-0.9-0.9-0.9H-1166.1z"/>
		<path class="st0" d="M-1205.2,640c0.5,0,0.9-0.4,0.9-0.9s-0.4-0.9-0.9-0.9h-1.8c-0.5,0-0.9,0.4-0.9,0.9s0.4,0.9,0.9,0.9H-1205.2z"
			/>
	</g>
</g>
<g id="Layer_7">
	<g id="Layer_5">
		<g>
			<g transform="translate(0,-952.36218)">
				<path class="st2" d="M-1131.9,1544.7c-7.3,0-14.5,2.7-20.1,8.3c-4.5,4.5-7.1,10.1-7.9,16c-11.3,1.4-20,11-20,22.7
					c0,12.6,10.3,22.9,22.9,22.9h53.4c10.9,0,19.6-8.8,19.6-19.6c0-10.9-8.8-19.6-19.6-19.6h-0.2c0.6-8-2-16.2-8.1-22.3
					C-1117.4,1547.5-1124.7,1544.7-1131.9,1544.7z M-1131.9,1546.9c6.7,0,13.4,2.5,18.5,7.6c5.9,5.9,8.4,14,7.5,21.7
					c-0.1,0.6,0.3,1.1,0.9,1.2c0,0,0.1,0,0.1,0h1.3c9.7,0,17.5,7.8,17.5,17.5c0,9.7-7.8,17.5-17.5,17.5h-53.4
					c-11.5,0-20.7-9.3-20.7-20.7c0-10.8,8.3-19.7,18.8-20.7c0.5,0,0.9-0.4,1-1c0.7-5.7,3.2-11.1,7.5-15.5
					C-1145.3,1549.4-1138.6,1546.9-1131.9,1546.9z"/>
			</g>
			<g>
				<polyline class="st2" points="-1125.3,595.4 -1113.4,602.2 -1108.5,609.8 -1107.4,611.6 -1106,617.1 -1105.9,623.9 
					-1102.4,625.1 -1099.4,625.6 -1095.1,627.3 -1090.7,630.7 -1086.1,636.1 -1084,644.4 -1089.8,656.5 -1097.3,660 -1116.5,661 
					-1133.7,661 -1151.4,661 -1164.4,660 -1174.7,652.5 -1178.7,643.3 -1179.8,637.2 -1176.5,630.3 -1171.9,624.9 -1169.8,623.3 
					-1161.8,618.3 -1157.5,615.5 -1157.8,609.6 -1156.2,606.1 -1150.4,602.2 -1146.7,597.5 -1139.5,594.5 -1129.5,593.8 
					-1123,593.8 -1121,595.4 -1111.9,600.6 -1111,608.2 				"/>
			</g>
			<polygon class="st2" points="-1111.5,604.1 -1108.2,605.2 -1108.5,609.8 -1113.8,609.6 			"/>
		</g>
	</g>
</g>
<g id="rulers">
</g>
</svg>
