<?xml version="1.0" encoding="utf-8"?>
<!-- Generator: Adobe Illustrator 19.0.0, SVG Export Plug-In . SVG Version: 6.00 Build 0)  -->
<svg version="1.1" xmlns="http://www.w3.org/2000/svg" xmlns:xlink="http://www.w3.org/1999/xlink" x="0px" y="0px"
	 viewBox="-1245 501 171 171" style="enable-background:new -1245 501 171 171;" xml:space="preserve">
<style type="text/css">
	.st0{fill:#37D6A6;}
	.st1{fill:#37D6A6;stroke:#37D6A6;stroke-width:0.5;stroke-miterlimit:10;}
	.st2{fill:none;stroke:#37D6A6;stroke-width:2;stroke-miterlimit:10;}
</style>
<g id="Layer_8">
	<path class="st0" d="M-1157.9,648.7c-33.5,0-60.8-27.3-60.8-60.8c0-33.5,27.3-60.8,60.8-60.8c33.5,0,60.8,27.3,60.8,60.8
		C-1097.1,621.4-1124.4,648.7-1157.9,648.7z M-1157.9,529.6c-32.1,0-58.2,26.1-58.2,58.2c0,32.1,26.1,58.2,58.2,58.2
		c32.1,0,58.2-26.1,58.2-58.2C-1099.7,555.7-1125.8,529.6-1157.9,529.6z"/>
	<circle class="st1" cx="-1181.5" cy="572" r="6.7"/>
	<circle class="st1" cx="-1133.9" cy="572" r="6.6"/>
	<path class="st2" d="M-1157.9,626.5c-16.9,0-31.6-10.8-36.8-26.8l-0.6-1.7l74.7,0l-0.6,1.7
		C-1126.3,615.7-1141.1,626.5-1157.9,626.5z M-1191.5,600.6c5.3,14,18.6,23.2,33.6,23.2c15.1,0,28.4-9.3,33.6-23.2L-1191.5,600.6z"
		/>
</g>
<g id="Layer_3">
	<path class="st0" d="M-1090.5,575.9h-4.9c-2-47.7-29.2-73.1-62.5-73.1c-33.3,0-60.5,25.4-62.3,73.1l-5.1,0c-3.5,0-7.7,4.6-7.7,9.7
		v22.7c0,5.1,4.2,10.4,7.7,10.4h7.5v-42.8h-0.2c1.6-45.1,28-70.2,60.1-70.2s57.9,25,60.5,70.2v42.8h0.5c-1.1,19-15.3,33.4-32.2,36.2
		c-1.5-2.9-4.4-5.1-7.9-5.1c-4.8,0-8.8,3.8-8.8,8.8c0,4.8,3.8,8.8,8.8,8.8c4.8,0,8.8-3.8,8.8-8.8c0-0.4,0-0.7-0.2-1.3
		c18.5-3.1,32.7-19.4,33.8-38.6h4.4c3.5,0,5.1-5.3,5.1-10.4v-22.7C-1084.8,580.6-1087,575.9-1090.5,575.9z"/>
</g>
<g id="rulers">
</g>
</svg>
