<?xml version="1.0" encoding="utf-8"?>
<!-- Generator: Adobe Illustrator 19.0.0, SVG Export Plug-In . SVG Version: 6.00 Build 0)  -->
<svg version="1.1" xmlns="http://www.w3.org/2000/svg" xmlns:xlink="http://www.w3.org/1999/xlink" x="0px" y="0px"
	 viewBox="-1245 501 171 171" style="enable-background:new -1245 501 171 171;" xml:space="preserve">
<style type="text/css">
	.st0{fill:#37D6A6;}
</style>
<g id="Layer_4">
	<g>
		<g>
			<path class="st0" d="M-1221.8,604.8h55.8c1,0,1.7-0.7,1.7-1.7s-0.7-1.7-1.7-1.7h-55.8c-1,0-1.7,0.7-1.7,1.7
				S-1222.6,604.8-1221.8,604.8z"/>
		</g>
		<g>
			<path class="st0" d="M-1221.8,617.2h32.1c1,0,1.7-0.7,1.7-1.7s-0.7-1.7-1.7-1.7h-32.1c-1,0-1.7,0.7-1.7,1.7
				S-1222.6,617.2-1221.8,617.2z"/>
		</g>
		<g>
			<g>
				<path class="st0" d="M-1093.1,535.2H-1211c-5.4,0-10,4.4-10,10v4.7h-4.4c-5.4,0-9.8,4.4-9.8,9.8v64.1c0,5.4,4.4,9.8,9.8,9.8
					h118.2c5.4,0,9.8-4.4,9.8-9.8v-4.9h4.2c5.4,0,10-4.4,10-10v-63.7C-1083.2,539.8-1087.7,535.2-1093.1,535.2z M-1100.8,623.8
					c0,3.5-2.9,6.4-6.4,6.4h-118.2c-3.5,0-6.4-2.9-6.4-6.4v-37.9h130.8v37.9H-1100.8z M-1100.8,570.2h-130.8v-10.5
					c0-3.5,2.9-6.4,6.4-6.4h118.2c3.5,0,6.4,2.9,6.4,6.4v10.5H-1100.8z M-1086.6,608.9c0,3.6-2.9,6.6-6.6,6.6h-4.2v-55.8
					c0-5.4-4.4-9.8-9.8-9.8h-110.4v-4.7c0-3.5,2.9-6.6,6.6-6.6h117.8c3.6,0,6.6,2.9,6.6,6.6V608.9z"/>
			</g>
		</g>
	</g>
</g>
<g id="Layer_3">
	<g>
		<path class="st0" d="M-1222.3,627.2h23.1c0.7,0,1.2-0.7,1.2-1.7s-0.5-1.7-1.2-1.7h-23.1c-0.7,0-1.2,0.7-1.2,1.7
			S-1222.9,627.2-1222.3,627.2z"/>
	</g>
</g>
<g id="rulers">
</g>
</svg>
