<?xml version="1.0" encoding="utf-8"?>
<!-- Generator: Adobe Illustrator 19.0.0, SVG Export Plug-In . SVG Version: 6.00 Build 0)  -->
<svg version="1.1" xmlns="http://www.w3.org/2000/svg" xmlns:xlink="http://www.w3.org/1999/xlink" x="0px" y="0px"
	 viewBox="-1245 501 171 171" style="enable-background:new -1245 501 171 171;" xml:space="preserve">
<style type="text/css">
	.st0{fill:none;stroke:#37D6A6;stroke-width:2;stroke-miterlimit:10;}
	.st1{fill:#37D6A6;}
</style>
<g id="Layer_5">
	<g>
		<path class="st0" d="M-1144.7,562.6h-6.7v-8.3c0-1.4-1.2-2.6-2.6-2.6h-10.9c-1.4,0-2.6,1.2-2.6,2.6v8.3h-42.5v-8.3
			c0-1.4-1.2-2.6-2.6-2.6h-10.9c-1.4,0-2.6,1.2-2.6,2.6v8.3h-6.7c-1.4,0-2.6,1.2-2.6,2.6s1.2,2.6,2.6,2.6v46.5
			c0,1.4,1.2,2.6,2.6,2.6h83c1.4,0,2.6-1.2,2.6-2.6v-46.5c1.4,0,2.6-1.2,2.6-2.6S-1143.3,562.6-1144.7,562.6z M-1162.4,556.9h5.7
			v5.7h-5.7V556.9z M-1221,556.9h5.7v5.7h-5.7V556.9z M-1149.9,611.9h-77.8v-14h5.6c1.4,0,2.6-1.2,2.6-2.6s-1.2-2.6-2.6-2.6h-5.6
			V587h11c1.4,0,2.6-1.2,2.6-2.6s-1.2-2.6-2.6-2.6h-11v-14h77.8V611.9z"/>
		<path class="st0" d="M-1196.3,605.8c1.2,1,2.9,0.5,3.6-0.3l11.7-13.1c0.6-0.8,0.8-1.8,0.4-2.7c-0.4-0.9-1.3-1.6-2.3-1.6h-6.4
			l8.3-10.6c0.9-1.2,0.6-2.7-0.4-3.6c-1.2-0.9-2.7-0.6-3.6,0.4l-11.7,14.8c-0.6,0.8-0.8,1.8-0.3,2.7c0.4,0.9,1.3,1.4,2.3,1.4h5.8
			l-7.8,8.8C-1197.5,603.2-1197.4,604.9-1196.3,605.8z"/>
	</g>
</g>
<g id="Layer_3">
	<path class="st1" d="M-1083.1,569.9c-0.4-0.4-1.1-0.4-1.5,0l-5.6,5.7l-8.1-8l5.7-5.7c0.4-0.4,0.4-1.1,0-1.5c-0.4-0.4-1.1-0.4-1.5,0
		l-5.7,5.7l-3.5-3.5c-0.7-0.7-1.6-1.1-2.6-1.1c-1,0-1.9,0.4-2.6,1.1c-0.7,0.7-1.1,1.6-1.1,2.6c0,1,0.4,1.9,1.1,2.6l0.2,0.2l-5.6,5.7
		c-3.6,3.6-4.3,8.9-2.4,13.3l-6.8,6.9l2.9,2.8c-2.1,1.8-3.8,3.9-5.6,6.2c-5.1,6.3-10.4,12.8-23.8,12.9l0,2.1
		c14.4-0.1,20.3-7.3,25.4-13.7c1.8-2.2,3.5-4.3,5.5-6l2.7,2.6l6.8-6.9c1.5,0.6,3.1,1,4.8,1c3.2,0,6.2-1.3,8.4-3.6l5.6-5.7l0.2,0.2
		c0.7,0.7,1.6,1.1,2.6,1.1c1,0,1.9-0.4,2.6-1.1c0.7-0.7,1.1-1.6,1.1-2.6c0-1-0.4-1.9-1.1-2.6l-3.6-3.6l5.6-5.7
		C-1082.6,571-1082.6,570.4-1083.1,569.9z M-1116.1,598.1l-4.1-4l4.9-5c0.4,0.6,0.9,1.2,1.4,1.7l0.9,0.9c0.5,0.5,1.1,1,1.7,1.4
		L-1116.1,598.1z M-1097.5,590.1c-1.8,1.9-4.3,2.9-6.9,2.9s-5.1-1-7-2.8l-0.9-0.9c-3.9-3.8-3.9-10.1-0.1-13.9l5.6-5.7l14.9,14.7
		L-1097.5,590.1z M-1086.5,584.5c-0.6,0.6-1.6,0.6-2.2,0l-18.3-18c-0.3-0.3-0.5-0.7-0.5-1.1c0-0.4,0.2-0.8,0.4-1.1
		c0.3-0.3,0.7-0.5,1.1-0.5c0.4,0,0.8,0.2,1.1,0.4l18.3,18C-1085.9,582.9-1085.9,583.9-1086.5,584.5z"/>
</g>
<g id="rulers">
</g>
</svg>
