<?xml version="1.0" encoding="utf-8"?>
<!-- Generator: Adobe Illustrator 19.0.0, SVG Export Plug-In . SVG Version: 6.00 Build 0)  -->
<svg version="1.1" xmlns="http://www.w3.org/2000/svg" xmlns:xlink="http://www.w3.org/1999/xlink" x="0px" y="0px"
	 viewBox="-1245 501 171 171" style="enable-background:new -1245 501 171 171;" xml:space="preserve">
<style type="text/css">
	.st0{fill:#37D6A6;}
</style>
<g id="Layer_2_1_">
	<path class="st0" d="M-1097.9,548.8h-27.8v-17.1c0-8.1-4.4-23.7-21.1-24.4h-6.1c-0.3,0-0.6,0.1-0.9,0.2c-2.3,0.3-4.4,0.8-6.2,1.6
		c-2.3-1-5-1.7-8.1-1.8h-6.1c-0.3,0-0.6,0.1-0.9,0.2c-15.1,1.8-19.2,16.4-19.2,24.2v17.1h-29.7l-11.4,121.3h152.8L-1097.9,548.8z
		 M-1151.8,512l4.9,0c16.2,0.7,16.5,19,16.5,19.7v17.1h-16.6v-17.1c0-5.3-1.9-13.9-8-19.3C-1154,512.2-1153,512.1-1151.8,512z
		 M-1160,514.5c8.1,5.2,8.3,16.7,8.3,17.3v17.1h-16.6v-17.1C-1168.3,531.2-1168.1,519.7-1160,514.5z M-1189.6,531.8
		c0-0.8,0.3-19,16.5-19.7l4.9,0c1.1,0,2.2,0.2,3.2,0.4c-6,5.4-7.9,14-7.9,19.3v17.1h-16.6V531.8z M-1230.2,665.5l10.5-111.9h25.4
		v13.6c0,1.3,1,2.3,2.3,2.3s2.3-1,2.3-2.3v-13.6h37.8v13.6c0,1.3,1,2.3,2.3,2.3s2.3-1,2.3-2.3v-13.6h27.3l-5.2,56l-5.2,56H-1230.2z
		 M-1120.3,609.5l5.2-56h13l14.2,111.9h-37.7L-1120.3,609.5z"/>
</g>
<g id="rulers">
</g>
</svg>
