<?xml version="1.0" encoding="utf-8"?>
<!-- Generator: Adobe Illustrator 19.0.0, SVG Export Plug-In . SVG Version: 6.00 Build 0)  -->
<svg version="1.1" xmlns="http://www.w3.org/2000/svg" xmlns:xlink="http://www.w3.org/1999/xlink" x="0px" y="0px"
	 viewBox="-1245 501 171 171" style="enable-background:new -1245 501 171 171;" xml:space="preserve">
<style type="text/css">
	.st0{display:none;}
	.st1{display:inline;}
	.st2{fill:none;stroke:#37D6A6;stroke-width:2;stroke-miterlimit:10;}
</style>
<g id="Layer_4" class="st0">
	<g transform="translate(0,-952.36218)" class="st1">
		<path class="st2" d="M-1232.5,1471.1c-1.9,0-3.5,1.6-3.5,3.5s1.6,3.5,3.5,3.5h18l18.3,86.4c0.4,2.1,1.9,3.9,3.6,3.9h86.9
			c1.8,0,3.5-1.6,3.5-3.5c0-1.8-1.7-3.5-3.5-3.5h-84l-2.9-13.9h93.9c1.6,0,3-1.2,3.4-2.7l12.2-52.1c0.5-2-1.3-4.2-3.4-4.2h-118.6
			l-3.1-14.7c-0.3-1.5-1.8-2.7-3.4-2.7H-1232.5z M-1203.7,1495.5h35.5v19.1h-31.4L-1203.7,1495.5z M-1161.3,1495.5h27.8v19.1h-27.8
			V1495.5z M-1126.5,1495.5h35.6l-4.5,19.1h-31.2V1495.5z M-1198.1,1521.5h29.9v19.1h-25.9L-1198.1,1521.5z M-1161.3,1521.5h27.8
			v19.1h-27.8V1521.5z M-1126.5,1521.5h29.5l-4.5,19.1h-25V1521.5z M-1175.2,1578.8c-8.6,0-15.6,7-15.6,15.6c0,8.6,7,15.6,15.6,15.6
			c8.6,0,15.6-7,15.6-15.6C-1159.5,1585.9-1166.6,1578.8-1175.2,1578.8z M-1123,1578.8c-8.6,0-15.6,7-15.6,15.6
			c0,8.6,7,15.6,15.6,15.6c8.6,0,15.6-7,15.6-15.6C-1107.4,1585.9-1114.4,1578.8-1123,1578.8z M-1175.2,1585.8
			c4.8,0,8.7,3.8,8.7,8.7c0,4.8-3.8,8.7-8.7,8.7c-4.8,0-8.7-3.8-8.7-8.7C-1183.8,1589.6-1180,1585.8-1175.2,1585.8z M-1123,1585.8
			c4.8,0,8.7,3.8,8.7,8.7c0,4.8-3.8,8.7-8.7,8.7s-8.7-3.8-8.7-8.7C-1131.7,1589.6-1127.9,1585.8-1123,1585.8z"/>
	</g>
</g>
<g id="Layer_3">
	<g transform="translate(0,-952.36218)">
		<path class="st2" d="M-1232.6,1468.2c-0.9,0.2-1.6,1-1.6,2v62.8c0,0.5,0.2,1,0.6,1.4c0,0,80.1,80.6,80,80.5
			c1.4,1.5,3.5,2.5,5.8,2.5c2.3,0,4.5-1.1,5.9-2.7l43-43c0.9-0.7,0.9-2.1,0.2-2.9c-0.8-0.8-2.2-0.7-2.9,0.2l-43.2,43.2
			c-0.7,0.8-1.8,1.3-2.9,1.3c-1.1,0-2.2-0.5-2.9-1.2c-0.2-0.2-79-79.6-79.6-80.1v-60h60c0.5,0.5,79.7,79.3,79.9,79.5
			c0.9,0.7,1.4,1.7,1.4,2.9c0,1.2-0.5,2.2-1.3,2.9c-0.8,0.7-0.8,2-0.2,2.8s2,0.8,2.8,0.2c1.6-1.4,2.6-3.5,2.6-5.8
			c0-2.4-1.1-4.5-2.8-5.9c0,0-80.2-79.9-80.2-79.9c-0.4-0.4-0.9-0.6-1.4-0.6h-62.8c-0.1,0-0.1,0-0.2,0
			C-1232.4,1468.2-1232.5,1468.2-1232.6,1468.2z M-1208.6,1483.9c-5.4,0-9.8,4.4-9.8,9.8s4.4,9.8,9.8,9.8s9.8-4.4,9.8-9.8
			S-1203.2,1483.9-1208.6,1483.9z M-1208.6,1487.8c3.3,0,5.9,2.6,5.9,5.9s-2.6,5.9-5.9,5.9c-3.3,0-5.9-2.6-5.9-5.9
			S-1211.9,1487.8-1208.6,1487.8z"/>
	</g>
</g>
<g id="rulers">
</g>
</svg>
